<svg width="160" height="64" viewBox="0 0 160 64" fill="none" xmlns="http://www.w3.org/2000/svg">
<g id="button">
<line id="11th - B" x1="157.5" y1="1.09278e-07" x2="157.5" y2="64" stroke="black" stroke-width="5"/>
<line id="10th - R" x1="152" y1="4.37114e-08" x2="152" y2="64" stroke="#F37070" stroke-width="2"/>
<line id="9th - B" x1="148.5" y1="2.18557e-08" x2="148.5" y2="64" stroke="black"/>
<line id="8th - B" x1="144.5" y1="6.55671e-08" x2="144.5" y2="64" stroke="black" stroke-width="3"/>
<line id="7th - R" x1="137" y1="1.31134e-07" x2="137" y2="64" stroke="#F37070" stroke-width="6"/>
<line id="6th - B" x1="132.5" y1="2.18557e-08" x2="132.5" y2="64" stroke="black"/>
<line id="5th - B" x1="129.5" y1="6.55671e-08" x2="129.5" y2="64" stroke="black" stroke-width="3"/>
<line id="4th - B" x1="125.5" y1="2.18557e-08" x2="125.5" y2="64" stroke="black"/>
<line id="3rd - R" x1="122.5" y1="6.55671e-08" x2="122.5" y2="64" stroke="#F37070" stroke-width="3"/>
<line id="2nd B" x1="116" y1="1.31134e-07" x2="116" y2="64" stroke="black" stroke-width="6"/>
<line id="1st - B" x1="110" y1="8.74228e-08" x2="110" y2="64" stroke="black" stroke-width="4"/>
<rect id="Button" width="160" height="64" fill="#F37070"/>
<path id="Title" d="M29.5234 40V22.9375H35.5C37.5703 22.9375 39.1406 23.3359 40.2109 24.1328C41.2812 24.9219 41.8164 26.082 41.8164 27.6133C41.8164 28.4492 41.6016 29.1875 41.1719 29.8281C40.7422 30.4609 40.1445 30.9258 39.3789 31.2227C40.2539 31.4414 40.9414 31.8828 41.4414 32.5469C41.9492 33.2109 42.2031 34.0234 42.2031 34.9844C42.2031 36.625 41.6797 37.8672 40.6328 38.7109C39.5859 39.5547 38.0938 39.9844 36.1562 40H29.5234ZM33.0391 32.5703V37.1758H36.0508C36.8789 37.1758 37.5234 36.9805 37.9844 36.5898C38.4531 36.1914 38.6875 35.6445 38.6875 34.9492C38.6875 33.3867 37.8789 32.5938 36.2617 32.5703H33.0391ZM33.0391 30.0859H35.6406C37.4141 30.0547 38.3008 29.3477 38.3008 27.9648C38.3008 27.1914 38.0742 26.6367 37.6211 26.3008C37.1758 25.957 36.4688 25.7852 35.5 25.7852H33.0391V30.0859ZM51.9766 40C51.8203 39.6953 51.707 39.3164 51.6367 38.8633C50.8164 39.7773 49.75 40.2344 48.4375 40.2344C47.1953 40.2344 46.1641 39.875 45.3438 39.1562C44.5312 38.4375 44.125 37.5312 44.125 36.4375C44.125 35.0938 44.6211 34.0625 45.6133 33.3438C46.6133 32.625 48.0547 32.2617 49.9375 32.2539H51.4961V31.5273C51.4961 30.9414 51.3438 30.4727 51.0391 30.1211C50.7422 29.7695 50.2695 29.5938 49.6211 29.5938C49.0508 29.5938 48.6016 29.7305 48.2734 30.0039C47.9531 30.2773 47.793 30.6523 47.793 31.1289H44.4062C44.4062 30.3945 44.6328 29.7148 45.0859 29.0898C45.5391 28.4648 46.1797 27.9766 47.0078 27.625C47.8359 27.2656 48.7656 27.0859 49.7969 27.0859C51.3594 27.0859 52.5977 27.4805 53.5117 28.2695C54.4336 29.0508 54.8945 30.1523 54.8945 31.5742V37.0703C54.9023 38.2734 55.0703 39.1836 55.3984 39.8008V40H51.9766ZM49.1758 37.6445C49.6758 37.6445 50.1367 37.5352 50.5586 37.3164C50.9805 37.0898 51.293 36.7891 51.4961 36.4141V34.2344H50.2305C48.5352 34.2344 47.6328 34.8203 47.5234 35.9922L47.5117 36.1914C47.5117 36.6133 47.6602 36.9609 47.957 37.2344C48.2539 37.5078 48.6602 37.6445 49.1758 37.6445ZM64.6211 30.4961C64.1602 30.4336 63.7539 30.4023 63.4023 30.4023C62.1211 30.4023 61.2812 30.8359 60.8828 31.7031V40H57.4961V27.3203H60.6953L60.7891 28.832C61.4688 27.668 62.4102 27.0859 63.6133 27.0859C63.9883 27.0859 64.3398 27.1367 64.668 27.2383L64.6211 30.4961ZM67.3281 41.4648H64.8086L71.0898 22.9375H73.6094L67.3281 41.4648ZM73.3984 41.4648H70.8789L77.1602 22.9375H79.6797L73.3984 41.4648ZM86.5234 39.0508C87.5 39.0508 88.3164 38.7773 88.9727 38.2305C89.6367 37.6758 89.9961 36.9609 90.0508 36.0859H91.3984C91.3594 36.8594 91.1172 37.5664 90.6719 38.207C90.2266 38.8398 89.6328 39.3359 88.8906 39.6953C88.1562 40.0547 87.3672 40.2344 86.5234 40.2344C84.8594 40.2344 83.5391 39.6562 82.5625 38.5C81.5938 37.3438 81.1094 35.7891 81.1094 33.8359V33.4141C81.1094 32.1641 81.3281 31.0586 81.7656 30.0977C82.2031 29.1367 82.8281 28.3945 83.6406 27.8711C84.4609 27.3477 85.418 27.0859 86.5117 27.0859C87.9023 27.0859 89.0469 27.5 89.9453 28.3281C90.8516 29.1562 91.3359 30.2461 91.3984 31.5977H90.0508C89.9883 30.6055 89.6289 29.8047 88.9727 29.1953C88.3242 28.5859 87.5039 28.2812 86.5117 28.2812C85.2461 28.2812 84.2617 28.7383 83.5586 29.6523C82.8633 30.5664 82.5156 31.8477 82.5156 33.4961V33.9062C82.5156 35.5234 82.8633 36.7852 83.5586 37.6914C84.2617 38.5977 85.25 39.0508 86.5234 39.0508ZM93.4375 33.4727C93.4375 32.2539 93.6719 31.1562 94.1406 30.1797C94.6172 29.2031 95.2852 28.4453 96.1445 27.9062C97.0117 27.3594 97.9922 27.0859 99.0859 27.0859C100.773 27.0859 102.141 27.6797 103.188 28.8672C104.234 30.0469 104.758 31.6133 104.758 33.5664V33.8594C104.758 35.0859 104.52 36.1914 104.043 37.1758C103.574 38.1523 102.91 38.9062 102.051 39.4375C101.191 39.9688 100.211 40.2344 99.1094 40.2344C97.4297 40.2344 96.0625 39.6445 95.0078 38.4648C93.9609 37.2773 93.4375 35.707 93.4375 33.7539V33.4727ZM94.8438 33.8594C94.8438 35.375 95.2344 36.6211 96.0156 37.5977C96.8047 38.5664 97.8359 39.0508 99.1094 39.0508C100.375 39.0508 101.398 38.5664 102.18 37.5977C102.969 36.6211 103.363 35.3359 103.363 33.7422V33.4727C103.363 32.5039 103.184 31.6172 102.824 30.8125C102.465 30.0078 101.961 29.3867 101.312 28.9492C100.664 28.5039 99.9219 28.2812 99.0859 28.2812C97.8359 28.2812 96.8164 28.7734 96.0273 29.7578C95.2383 30.7344 94.8438 32.0156 94.8438 33.6016V33.8594ZM107.102 33.543C107.102 31.5742 107.539 30.0078 108.414 28.8438C109.297 27.6719 110.492 27.0859 112 27.0859C113.711 27.0859 115.016 27.7617 115.914 29.1133V22H117.309V40H115.996L115.938 38.3125C115.039 39.5938 113.719 40.2344 111.977 40.2344C110.516 40.2344 109.336 39.6484 108.438 38.4766C107.547 37.2969 107.102 35.707 107.102 33.707V33.543ZM108.52 33.7891C108.52 35.4062 108.844 36.6836 109.492 37.6211C110.141 38.5508 111.055 39.0156 112.234 39.0156C113.961 39.0156 115.188 38.2539 115.914 36.7305V30.7773C115.188 29.1289 113.969 28.3047 112.258 28.3047C111.078 28.3047 110.16 28.7695 109.504 29.6992C108.848 30.6211 108.52 31.9844 108.52 33.7891ZM125.91 40.2344C124.832 40.2344 123.855 39.9688 122.98 39.4375C122.113 38.9062 121.438 38.168 120.953 37.2227C120.469 36.2695 120.227 35.2031 120.227 34.0234V33.5195C120.227 32.3008 120.461 31.2031 120.93 30.2266C121.406 29.25 122.066 28.4844 122.91 27.9297C123.754 27.3672 124.668 27.0859 125.652 27.0859C127.191 27.0859 128.41 27.6133 129.309 28.668C130.215 29.7148 130.668 31.1484 130.668 32.9688V33.7539H121.621V34.0234C121.621 35.4609 122.031 36.6602 122.852 37.6211C123.68 38.5742 124.719 39.0508 125.969 39.0508C126.719 39.0508 127.379 38.9141 127.949 38.6406C128.527 38.3672 129.051 37.9297 129.52 37.3281L130.398 37.9961C129.367 39.4883 127.871 40.2344 125.91 40.2344ZM125.652 28.2812C124.598 28.2812 123.707 28.668 122.98 29.4414C122.262 30.2148 121.824 31.2539 121.668 32.5586H129.273V32.4062C129.234 31.1875 128.887 30.1953 128.23 29.4297C127.574 28.6641 126.715 28.2812 125.652 28.2812Z" fill="black"/>
</g>
</svg>
